{
  "asset": {
    "generator": "Khronos glTF Blender I/O v1.6.16",
    "version": "2.0"
  },
  "scene": 0,
  "scenes": [
    {
      "name": "Scene",
      "nodes": [
        0
      ]
    }
  ],
  "nodes": [
    {
      "mesh": 0,
      "name": "ornate_mirror_01"
    }
  ],
  "materials": [
    {
      "doubleSided": true,
      "name": "ornate_mirror_01",
      "normalTexture": {
        "index": 0
      },
      "pbrMetallicRoughness": {
        "baseColorTexture": {
          "index": 1
        },
        "metallicRoughnessTexture": {
          "index": 2
        }
      }
    }
  ],
  "meshes": [
    {
      "name": "Plane.001",
      "primitives": [
        {
          "attributes": {
            "POSITION": 0,
            "NORMAL": 1,
            "TEXCOORD_0": 2
          },
          "indices": 3,
          "material": 0
        }
      ]
    }
  ],
  "textures": [
    {
      "sampler": 0,
      "source": 0
    },
    {
      "sampler": 0,
      "source": 1
    },
    {
      "sampler": 0,
      "source": 2
    }
  ],
  "images": [
    {
      "mimeType": "image/jpeg",
      "name": "ornate_mirror_01_nor_gl",
      "uri": "textures/ornate_mirror_01_nor_gl_1k.jpg"
    },
    {
      "mimeType": "image/jpeg",
      "name": "ornate_mirror_01_diff",
      "uri": "textures/ornate_mirror_01_diff_1k.jpg"
    },
    {
      "mimeType": "image/jpeg",
      "name": "ornate_mirror_01_arm.png",
      "uri": "textures/ornate_mirror_01_arm_1k.jpg"
    }
  ],
  "accessors": [
    {
      "bufferView": 0,
      "componentType": 5126,
      "count": 8978,
      "max": [
        0.2432478666305542,
        0.33320102095603943,
        0.026246607303619385
      ],
      "min": [
        -0.2432478666305542,
        -0.41095438599586487,
        0.00028827227652072906
      ],
      "type": "VEC3"
    },
    {
      "bufferView": 1,
      "componentType": 5126,
      "count": 8978,
      "type": "VEC3"
    },
    {
      "bufferView": 2,
      "componentType": 5126,
      "count": 8978,
      "type": "VEC2"
    },
    {
      "bufferView": 3,
      "componentType": 5123,
      "count": 42738,
      "type": "SCALAR"
    }
  ],
  "bufferViews": [
    {
      "buffer": 0,
      "byteLength": 107736,
      "byteOffset": 0
    },
    {
      "buffer": 0,
      "byteLength": 107736,
      "byteOffset": 107736
    },
    {
      "buffer": 0,
      "byteLength": 71824,
      "byteOffset": 215472
    },
    {
      "buffer": 0,
      "byteLength": 85476,
      "byteOffset": 287296
    }
  ],
  "samplers": [
    {
      "magFilter": 9729,
      "minFilter": 9987
    }
  ],
  "buffers": [
    {
      "byteLength": 372772,
      "uri": "ornate_mirror_01.bin"
    }
  ]
}