{
  "asset": {
    "generator": "Khronos glTF Blender I/O v1.6.16",
    "version": "2.0"
  },
  "scene": 0,
  "scenes": [
    {
      "name": "Scene",
      "nodes": [
        0,
        1,
        2,
        3
      ]
    }
  ],
  "nodes": [
    {
      "mesh": 0,
      "name": "GothicCommode_01"
    },
    {
      "mesh": 1,
      "name": "GothicCommode_01_door03",
      "translation": [
        -0.0014149999478831887,
        0.35649898648262024,
        0.2807460129261017
      ]
    },
    {
      "mesh": 2,
      "name": "GothicCommode_01_door02",
      "translation": [
        -0.001487000030465424,
        0.6670479774475098,
        0.261231005191803
      ]
    },
    {
      "mesh": 3,
      "name": "GothicCommode_01_door01",
      "translation": [
        -0.0009110000100918114,
        0.9869080185890198,
        0.27112799882888794
      ]
    }
  ],
  "materials": [
    {
      "doubleSided": true,
      "name": "GothicCommode_01",
      "normalTexture": {
        "index": 0
      },
      "pbrMetallicRoughness": {
        "baseColorTexture": {
          "index": 1
        },
        "metallicRoughnessTexture": {
          "index": 2
        }
      }
    }
  ],
  "meshes": [
    {
      "name": "Circle.003",
      "primitives": [
        {
          "attributes": {
            "POSITION": 0,
            "NORMAL": 1,
            "TEXCOORD_0": 2
          },
          "indices": 3,
          "material": 0
        }
      ]
    },
    {
      "name": "Circle.005",
      "primitives": [
        {
          "attributes": {
            "POSITION": 4,
            "NORMAL": 5,
            "TEXCOORD_0": 6
          },
          "indices": 7,
          "material": 0
        }
      ]
    },
    {
      "name": "Circle.006",
      "primitives": [
        {
          "attributes": {
            "POSITION": 8,
            "NORMAL": 9,
            "TEXCOORD_0": 10
          },
          "indices": 11,
          "material": 0
        }
      ]
    },
    {
      "name": "Circle.007",
      "primitives": [
        {
          "attributes": {
            "POSITION": 12,
            "NORMAL": 13,
            "TEXCOORD_0": 14
          },
          "indices": 15,
          "material": 0
        }
      ]
    }
  ],
  "textures": [
    {
      "sampler": 0,
      "source": 0
    },
    {
      "sampler": 0,
      "source": 1
    },
    {
      "sampler": 0,
      "source": 2
    }
  ],
  "images": [
    {
      "mimeType": "image/jpeg",
      "name": "GothicCommode_01_nor_gl",
      "uri": "textures/GothicCommode_01_nor_gl_1k.jpg"
    },
    {
      "mimeType": "image/jpeg",
      "name": "GothicCommode_01_diff",
      "uri": "textures/GothicCommode_01_diff_1k.jpg"
    },
    {
      "mimeType": "image/jpeg",
      "name": "GothicCommode_01_metallic-GothicCommode_01_roughness",
      "uri": "textures/GothicCommode_01_arm_1k.jpg"
    }
  ],
  "accessors": [
    {
      "bufferView": 0,
      "componentType": 5126,
      "count": 1760,
      "max": [
        0.5996255874633789,
        1.2120425701141357,
        0.2915591299533844
      ],
      "min": [
        -0.6017770767211914,
        -2.5067352638075135e-8,
        -0.28910031914711
      ],
      "type": "VEC3"
    },
    {
      "bufferView": 1,
      "componentType": 5126,
      "count": 1760,
      "type": "VEC3"
    },
    {
      "bufferView": 2,
      "componentType": 5126,
      "count": 1760,
      "type": "VEC2"
    },
    {
      "bufferView": 3,
      "componentType": 5123,
      "count": 4554,
      "type": "SCALAR"
    },
    {
      "bufferView": 4,
      "componentType": 5126,
      "count": 458,
      "max": [
        0.5006497502326965,
        0.12801483273506165,
        4.5334481058034726e-8
      ],
      "min": [
        -0.5004239678382874,
        -0.12842588126659393,
        -0.5504449605941772
      ],
      "type": "VEC3"
    },
    {
      "bufferView": 5,
      "componentType": 5126,
      "count": 458,
      "type": "VEC3"
    },
    {
      "bufferView": 6,
      "componentType": 5126,
      "count": 458,
      "type": "VEC2"
    },
    {
      "bufferView": 7,
      "componentType": 5123,
      "count": 1884,
      "type": "SCALAR"
    },
    {
      "bufferView": 8,
      "componentType": 5126,
      "count": 458,
      "max": [
        0.5007211565971375,
        0.12796872854232788,
        4.533447750532105e-8
      ],
      "min": [
        -0.5003523230552673,
        -0.12847203016281128,
        -0.5499328374862671
      ],
      "type": "VEC3"
    },
    {
      "bufferView": 9,
      "componentType": 5126,
      "count": 458,
      "type": "VEC3"
    },
    {
      "bufferView": 10,
      "componentType": 5126,
      "count": 458,
      "type": "VEC2"
    },
    {
      "bufferView": 11,
      "componentType": 5123,
      "count": 1884,
      "type": "SCALAR"
    },
    {
      "bufferView": 12,
      "componentType": 5126,
      "count": 819,
      "max": [
        0.5001448392868042,
        0.12745743989944458,
        3.043332341690075e-8
      ],
      "min": [
        -0.5009286999702454,
        -0.12898337841033936,
        -0.54034423828125
      ],
      "type": "VEC3"
    },
    {
      "bufferView": 13,
      "componentType": 5126,
      "count": 819,
      "type": "VEC3"
    },
    {
      "bufferView": 14,
      "componentType": 5126,
      "count": 819,
      "type": "VEC2"
    },
    {
      "bufferView": 15,
      "componentType": 5123,
      "count": 3369,
      "type": "SCALAR"
    }
  ],
  "bufferViews": [
    {
      "buffer": 0,
      "byteLength": 21120,
      "byteOffset": 0
    },
    {
      "buffer": 0,
      "byteLength": 21120,
      "byteOffset": 21120
    },
    {
      "buffer": 0,
      "byteLength": 14080,
      "byteOffset": 42240
    },
    {
      "buffer": 0,
      "byteLength": 9108,
      "byteOffset": 56320
    },
    {
      "buffer": 0,
      "byteLength": 5496,
      "byteOffset": 65428
    },
    {
      "buffer": 0,
      "byteLength": 5496,
      "byteOffset": 70924
    },
    {
      "buffer": 0,
      "byteLength": 3664,
      "byteOffset": 76420
    },
    {
      "buffer": 0,
      "byteLength": 3768,
      "byteOffset": 80084
    },
    {
      "buffer": 0,
      "byteLength": 5496,
      "byteOffset": 83852
    },
    {
      "buffer": 0,
      "byteLength": 5496,
      "byteOffset": 89348
    },
    {
      "buffer": 0,
      "byteLength": 3664,
      "byteOffset": 94844
    },
    {
      "buffer": 0,
      "byteLength": 3768,
      "byteOffset": 98508
    },
    {
      "buffer": 0,
      "byteLength": 9828,
      "byteOffset": 102276
    },
    {
      "buffer": 0,
      "byteLength": 9828,
      "byteOffset": 112104
    },
    {
      "buffer": 0,
      "byteLength": 6552,
      "byteOffset": 121932
    },
    {
      "buffer": 0,
      "byteLength": 6738,
      "byteOffset": 128484
    }
  ],
  "samplers": [
    {
      "magFilter": 9729,
      "minFilter": 9987
    }
  ],
  "buffers": [
    {
      "byteLength": 135224,
      "uri": "GothicCommode_01.bin"
    }
  ]
}